/vscmnt/brussel_pixiu_data/_data_brussel/112/vsc11236/PredSimResults/SUBJ07mtu3D/worker2.mot
version=1
nRows=10
nColumns=50
inDegrees=yes
endheader
                time	         pelvis_tilt	         pelvis_list	     pelvis_rotation	           pelvis_tx	           pelvis_ty	           pelvis_tz	       hip_flexion_r	     hip_adduction_r	      hip_rotation_r	        knee_angle_r	       ankle_angle_r	         mtp_angle_r	       hip_flexion_l	     hip_adduction_l	      hip_rotation_l	        knee_angle_l	       ankle_angle_l	         mtp_angle_l	    lumbar_extension	      lumbar_bending	     lumbar_rotation	 ercspn_r/activation	 intobl_r/activation	 extobl_r/activation	    abd_r/activation	    add_r/activation	hamstrings_r/activation	bifemsh_r/activation	glut_max_r/activation	iliopsoas_r/activation	rect_fem_r/activation	  vasti_r/activation	gastroc_r/activation	 soleus_r/activation	tib_ant_r/activation	 ercspn_l/activation	 intobl_l/activation	 extobl_l/activation	    abd_l/activation	    add_l/activation	hamstrings_l/activation	bifemsh_l/activation	glut_max_l/activation	iliopsoas_l/activation	rect_fem_l/activation	  vasti_l/activation	gastroc_l/activation	 soleus_l/activation	tib_ant_l/activation	
          1.09008213	         -4.03318525	          0.59720547	          7.93183205	          1.32990020	          0.85056931	         -0.01275482	         30.01098026	         -2.54025087	         -3.22979360	         -6.63684276	          5.17785965	          0.26577097	        -14.10238547	          1.28035582	          3.88507824	         -8.38294697	          9.13339287	         25.54612265	        -10.55717693	         -2.39782169	         -1.46519145	          0.12288776	          0.15093698	          0.00999999	          0.03041892	          0.11447763	          0.06257528	          0.13262378	          0.06839004	          0.03278428	          0.01000000	          0.00999999	          0.00999999	          0.00999999	          0.35912005	          0.12084401	          0.00999999	          0.00999999	          0.03793127	          0.00999999	          0.01388548	          0.14227001	          0.01750880	          0.16354796	          0.01181679	          0.00999999	          0.14635616	          0.28040120	          0.01949843	
          1.10098295	         -4.02411735	          0.65673732	          7.91492885	          1.34545031	          0.84895831	         -0.01265731	         29.80054412	         -2.34617385	         -2.84329872	         -8.10713447	          4.88920942	          0.24999228	        -14.64557254	          1.25139829	          3.53692124	         -9.32083251	          8.31160281	         27.11670694	        -10.42825267	         -2.00281756	         -1.70047419	          0.10399408	          0.13164901	          0.00999999	          0.02574209	          0.09687698	          0.05820560	          0.11506625	          0.12051992	          0.02774378	          0.00999999	          0.00999999	          0.01893566	          0.01396367	          0.38129966	          0.13465575	          0.00999999	          0.00999999	          0.03209943	          0.01775380	          0.01515470	          0.12039636	          0.01481687	          0.13840288	          0.00999999	          0.00999999	          0.12385427	          0.26175988	          0.01650060	
          1.11188377	         -4.01197490	          0.70586825	          7.84954093	          1.36112897	          0.84756358	         -0.01249232	         29.51457085	         -2.19625301	         -2.46578740	         -9.50287290	          4.53452953	          0.24573477	        -15.05910763	          1.22493461	          3.15152117	        -10.49727370	          7.37715555	         28.64656370	        -10.29272384	         -1.59051341	         -1.92627115	          0.13165829	          0.11140831	          0.00999999	          0.10429502	          0.10952438	          0.05314676	          0.09737512	          0.13018202	          0.02347825	          0.00999999	          0.00999999	          0.01602435	          0.01181679	          0.42919452	          0.15004337	          0.00999999	          0.00999999	          0.02716422	          0.01502420	          0.01282471	          0.10188572	          0.01253881	          0.11712378	          0.00999999	          0.00999999	          0.10481199	          0.23897583	          0.01396367	
          1.12278459	         -3.99879688	          0.76676836	          7.73771656	          1.37675034	          0.84656255	         -0.01223292	         29.22849600	         -2.05880458	         -2.16435205	        -10.86711233	          4.13358260	          0.22586796	        -15.26591546	          1.22484577	          2.73738509	        -12.01741706	          6.29512229	         30.09960293	        -10.17235996	         -1.18982387	         -2.14139851	          0.13902700	          0.09427956	          0.00999999	          0.15097937	          0.13579024	          0.04497559	          0.08240394	          0.15444967	          0.01986852	          0.00999999	          0.00999999	          0.01356065	          0.00999999	          0.44794374	          0.18817742	          0.00999999	          0.00999999	          0.02298779	          0.01590905	          0.01350245	          0.08622105	          0.01061100	          0.09911630	          0.00999999	          0.00999999	          0.08869741	          0.20223391	          0.01181679	
          1.13368541	         -3.98449165	          0.83319983	          7.58673605	          1.39219365	          0.84607556	         -0.01187960	         28.99842791	         -1.92119557	         -1.91363826	        -12.34573366	          3.94212849	          0.20917295	        -15.19833186	          1.24338107	          2.29893025	        -13.98093579	          5.08311486	         31.36124011	        -10.07407843	         -0.79745058	         -2.34692767	          0.15039869	          0.07978432	          0.00999999	          0.18634105	          0.15887911	          0.04168286	          0.06973454	          0.17561592	          0.01681379	          0.00999999	          0.02002866	          0.01147573	          0.00999999	          0.45134512	          0.21725680	          0.00999999	          0.00999999	          0.01945348	          0.03475157	          0.01167444	          0.07296478	          0.00999999	          0.08387742	          0.00999999	          0.00999999	          0.07506041	          0.17114096	          0.00999999	
          1.14458624	         -3.96968003	          0.90650056	          7.39928521	          1.40738792	          0.84618330	         -0.01144617	         28.80553512	         -1.78715411	         -1.70917278	        -13.88323120	          3.91987000	          0.19312742	        -14.79583061	          1.28169781	          1.82575564	        -16.47919578	          3.76600354	         32.25763678	         -9.99833914	         -0.41721872	         -2.54099568	          0.15408773	          0.06751768	          0.00999999	          0.20709630	          0.17844353	          0.04128421	          0.05901303	          0.18344789	          0.01422871	          0.00999999	          0.04751282	          0.00999999	          0.00999999	          0.44204905	          0.24180362	          0.00999999	          0.00999999	          0.01646256	          0.05986857	          0.01000000	          0.06174663	          0.00999999	          0.07098148	          0.00999999	          0.00999999	          0.06352006	          0.14482847	          0.00999999	
          1.15548706	         -3.95556277	          0.98811895	          7.17631483	          1.42231556	          0.84692347	         -0.01094851	         28.56907355	         -1.65642063	         -1.53802751	        -15.32088976	          4.02785895	          0.18074800	        -14.01471866	          1.33657825	          1.30977239	        -19.57075340	          2.34105337	         32.60864395	         -9.93967547	         -0.05281531	         -2.72042153	          0.15319564	          0.05713701	          0.00999999	          0.21237806	          0.18722146	          0.04222225	          0.04993993	          0.18326459	          0.01204108	          0.00999999	          0.06840155	          0.00999999	          0.00999999	          0.42200373	          0.24727579	          0.00999999	          0.00999999	          0.01393148	          0.07969018	          0.01000000	          0.05225325	          0.00999999	          0.06006826	          0.00999999	          0.00999999	          0.05375401	          0.12256146	          0.00999999	
          1.16638788	         -3.94341540	          1.07551380	          6.91926409	          1.43698618	          0.84825287	         -0.01039895	         28.21995341	         -1.52446781	         -1.38188570	        -16.52552594	          4.21905047	          0.17313221	        -12.83795139	          1.39593082	          0.76610185	        -23.24530709	          0.70094094	         32.38258213	         -9.89168466	          0.29701046	         -2.88182004	          0.13193731	          0.04835234	          0.00999999	          0.20395565	          0.18821057	          0.04752212	          0.04226179	          0.17157424	          0.01018980	          0.00999999	          0.08963743	          0.00999999	          0.00999999	          0.40420453	          0.25095446	          0.00999999	          0.00999999	          0.01178955	          0.09221302	          0.00999999	          0.04421944	          0.00999999	          0.05083292	          0.00999999	          0.00999999	          0.04548947	          0.10371795	          0.00999999	
          1.17728870	         -3.93450583	          1.16483877	          6.62876452	          1.45139606	          0.85007015	         -0.00979295	         27.71971417	         -1.38450370	         -1.21595777	        -17.41752146	          4.45822747	          0.17185324	        -11.27498779	          1.44788468	          0.22762144	        -27.43496846	         -1.20335916	         31.44875204	         -9.85361988	          0.63201258	         -3.02368825	          0.11165228	          0.04091829	          0.00999999	          0.20345239	          0.17814881	          0.05833170	          0.03576415	          0.14519514	          0.00999999	          0.00999999	          0.11773693	          0.00999999	          0.00999999	          0.38422630	          0.24018117	          0.00999999	          0.00999999	          0.00999999	          0.10579468	          0.01000001	          0.03742081	          0.00999999	          0.04301748	          0.00999999	          0.00999999	          0.03849558	          0.08777157	          0.04398463	
          1.18818952	         -3.93028783	          1.25002648	          6.30775771	          1.46549775	          0.85223375	         -0.00914320	         27.05987668	         -1.22931137	         -1.00448451	        -17.97461444	          4.75448320	          0.18422574	         -9.36179068	          1.49067701	         -0.25761475	        -32.05679240	         -3.13748021	         29.36874190	         -9.83196966	          0.95699275	         -3.14429615	          0.09448603	          0.03462721	          0.00999999	          0.21581831	          0.15674156	          0.06639404	          0.03026550	          0.12287175	          0.00999999	          0.00999999	          0.13099368	          0.00999999	          0.00999999	          0.35890836	          0.24825254	          0.03324143	          0.00999999	          0.00999999	          0.08952901	          0.01396367	          0.03166746	          0.01209642	          0.03640365	          0.01000000	          0.01039154	          0.03257698	          0.07427692	          0.16957923	
